<?xml version="1.0" standalone="no"?>
<!DOCTYPE svg PUBLIC "-//W3C//DTD SVG 20010904//EN"
 "http://www.w3.org/TR/2001/REC-SVG-20010904/DTD/svg10.dtd">
<svg version="1.0" xmlns="http://www.w3.org/2000/svg"
 width="263.000000pt" height="265.000000pt" viewBox="0 0 263.000000 265.000000"
 preserveAspectRatio="xMidYMid meet">

<g transform="translate(0.000000,265.000000) scale(0.100000,-0.100000)"
fill="#000000" stroke="none">
<path d="M263 2596 c-34 -30 -66 -56 -70 -58 -9 -4 -139 -149 -171 -192 l-22
-29 0 -994 0 -994 33 -41 c39 -51 175 -189 241 -246 l48 -42 990 0 991 0 46
37 c61 51 218 209 239 242 9 14 22 30 29 34 10 6 13 99 12 435 -1 235 -4 414
-6 397 -50 -429 -324 -809 -723 -1005 -73 -36 -232 -88 -318 -104 -278 -53
-570 -12 -823 114 -320 161 -563 452 -667 800 -47 155 -61 413 -33 570 39 215
147 458 269 604 353 420 903 582 1412 416 304 -99 556 -306 727 -595 69 -117
135 -308 152 -438 5 -39 9 105 10 379 l1 441 -32 39 c-42 50 -227 232 -266
262 l-30 22 -989 0 -988 -1 -62 -53z"/>
<path d="M1115 2554 c-394 -73 -729 -324 -909 -681 -202 -403 -171 -897 80
-1265 133 -195 287 -330 491 -432 183 -91 345 -129 558 -129 355 0 641 117
890 368 258 257 375 540 375 903 0 582 -400 1082 -979 1224 -114 28 -387 35
-506 12z m453 -89 c299 -57 583 -245 752 -497 144 -215 204 -414 203 -673 -1
-318 -116 -597 -342 -824 -509 -513 -1359 -450 -1789 132 -142 192 -232 465
-232 703 0 152 45 352 110 491 176 375 526 632 931 683 93 11 264 4 367 -15z"/>
<path d="M542 1790 c-43 -18 -86 -163 -68 -233 18 -74 94 -12 122 100 4 16 2
23 -8 23 -9 0 -21 -22 -31 -54 -17 -53 -41 -85 -54 -72 -12 12 -2 98 18 151
20 55 40 73 57 52 53 -67 80 -225 74 -427 -3 -64 -3 -65 -42 -89 -48 -30 -74
-80 -74 -143 0 -56 21 -84 74 -98 105 -28 240 59 314 203 36 68 54 184 36 227
-19 45 -52 64 -100 56 -42 -6 -48 0 -30 32 30 55 51 203 34 246 -9 24 -57 20
-81 -6 -26 -30 -50 -84 -65 -147 -13 -58 -38 -70 -38 -19 0 52 -33 140 -66
175 -34 35 -37 37 -72 23z m283 -119 c-4 -31 -20 -96 -36 -145 -17 -49 -27
-91 -24 -94 3 -4 20 0 38 7 18 8 46 16 62 18 43 7 59 -26 53 -110 -4 -75 -50
-177 -106 -239 -42 -46 -119 -88 -162 -88 -67 0 -91 79 -50 160 22 44 40 52
40 19 0 -33 33 -18 47 21 7 22 17 34 27 34 21 -2 20 9 -2 23 -18 11 -18 17 -6
95 20 133 62 287 96 351 18 34 30 7 23 -52z"/>
<path d="M1602 1681 c-21 -46 -33 -60 -51 -63 -14 -2 -26 -9 -29 -16 -3 -9 3
-13 19 -10 19 2 23 -1 21 -17 -2 -11 -7 -83 -11 -160 -7 -120 -11 -145 -30
-177 -29 -48 -48 -48 -57 -2 -6 33 -1 171 7 204 3 10 -5 16 -26 18 l-30 3 2
-127 c1 -112 3 -129 21 -147 32 -32 69 -16 94 41 20 45 21 46 30 22 32 -85 64
-106 102 -65 21 22 25 23 36 10 25 -30 65 -11 85 40 7 18 9 17 21 -12 21 -50
56 -45 83 10 12 24 21 51 21 60 0 23 3 22 53 -14 46 -33 61 -54 52 -69 -12
-20 -52 -11 -63 15 -6 14 -18 25 -27 25 -22 0 -18 -37 6 -61 39 -39 144 -6
132 42 -3 10 -27 35 -53 54 -26 19 -53 49 -61 66 -11 28 -10 36 7 68 24 45 53
48 73 7 10 -22 11 -37 4 -57 -14 -35 -1 -58 21 -40 11 9 16 30 16 66 0 59 -16
81 -67 91 -25 5 -37 0 -64 -24 -30 -26 -34 -36 -35 -83 -2 -60 -34 -157 -49
-149 -6 3 -10 54 -10 114 l-1 110 -34 9 c-53 14 -79 2 -100 -47 -11 -23 -22
-69 -26 -102 -8 -77 -22 -116 -43 -112 -43 8 -61 138 -41 289 l13 100 36 -2
c53 -3 61 -1 61 16 0 18 -4 18 -48 6 -45 -13 -50 4 -19 68 13 28 22 53 19 56
-16 16 -36 -2 -60 -54z m188 -280 c0 -21 -4 -51 -10 -67 -5 -16 -14 -48 -20
-71 -7 -28 -16 -43 -27 -43 -13 0 -15 9 -10 58 8 80 34 162 52 162 11 0 15
-11 15 -39z"/>
<path d="M1322 1537 c-16 -19 -48 -106 -62 -169 -17 -75 -34 -64 -27 18 4 57
3 64 -13 64 -21 0 -33 -51 -32 -136 0 -55 18 -134 30 -134 15 0 32 24 32 44 0
10 7 42 15 70 8 28 24 84 36 124 12 39 25 75 30 78 16 9 20 -21 10 -69 -15
-65 -25 -237 -17 -281 7 -39 40 -62 71 -50 12 5 11 11 -10 36 -30 36 -32 84
-10 232 18 120 19 158 3 174 -16 16 -43 15 -56 -1z"/>
<path d="M1420 1506 c0 -18 32 -26 54 -14 23 13 10 28 -25 28 -18 0 -29 -5
-29 -14z"/>
<path d="M1031 1449 c-27 -29 -35 -76 -28 -155 8 -88 41 -133 87 -119 18 6 50
65 50 92 0 9 7 25 17 35 9 10 11 18 6 18 -6 0 -13 21 -16 46 -9 87 -71 131
-116 83z m67 -24 c14 -31 16 -125 3 -125 -56 0 -83 53 -57 114 18 42 38 46 54
11z m8 -149 c5 -13 -21 -76 -31 -76 -8 0 -35 58 -35 75 0 20 58 21 66 1z"/>
<path d="M1330 957 c0 -91 3 -118 13 -114 12 4 13 108 1 149 -9 32 12 26 44
-13 24 -28 35 -52 39 -89 3 -29 10 -49 16 -47 11 3 11 203 0 220 -12 20 -24
-9 -18 -44 4 -21 3 -39 -2 -39 -4 0 -27 21 -50 47 l-43 48 0 -118z"/>
<path d="M1785 1058 c-3 -8 -4 -59 -3 -114 l3 -99 39 -3 c58 -5 81 11 26 17
l-45 6 -1 98 c-1 94 -7 126 -19 95z"/>
<path d="M1946 1048 c-23 -32 -20 -43 17 -85 59 -69 61 -71 47 -88 -21 -26
-50 -18 -56 15 -8 35 -24 40 -24 7 0 -54 57 -79 94 -41 25 24 19 48 -24 97
-40 45 -50 79 -28 93 6 4 19 -2 29 -14 20 -25 29 -28 29 -9 0 18 -32 47 -53
47 -9 0 -23 -10 -31 -22z"/>
<path d="M1543 1018 c-12 -42 -34 -151 -34 -165 0 -4 3 -9 8 -10 5 -2 13 16
19 39 7 32 14 43 28 43 19 0 25 -8 45 -59 20 -50 24 -19 7 51 -40 160 -52 176
-73 101z m37 -38 c0 -29 -4 -40 -15 -40 -16 0 -20 35 -9 64 11 29 24 16 24
-24z"/>
<path d="M1690 950 c0 -67 4 -110 10 -110 6 0 10 43 10 110 0 67 -4 110 -10
110 -6 0 -10 -43 -10 -110z"/>
</g>
</svg>
